<svg width="944" height="160" viewBox="0 0 944 160" fill="none" xmlns="http://www.w3.org/2000/svg">
<path d="M418.515 61.6876C446.688 60.4337 452.372 81.7496 452.372 101.059V157.985H472.143V101.059C472.143 70.214 458.303 40.3717 418.515 41.8764C404.429 42.3779 391.578 48.3965 381.446 57.9259V1H361.428V75.9818C351.543 87.5175 344.623 98.3007 337.209 110.338C328.312 125.134 318.674 138.174 300.881 138.174C280.369 138.174 263.811 121.372 263.811 100.558C263.811 79.7434 280.369 62.9415 300.881 62.9415C314.967 62.9415 327.077 70.7155 333.255 82.502L350.801 71.217C340.669 53.6628 322.134 41.8764 300.881 41.8764C269.001 41.8764 243.052 68.2077 243.052 100.558C243.052 132.908 269.001 158.988 300.881 158.988C327.571 158.988 339.928 143.942 352.531 124.883C353.678 123.122 355.039 120.903 356.599 118.358L356.601 118.356L356.603 118.352L356.609 118.341L356.611 118.338L356.617 118.329C368.173 99.4779 390.662 62.7917 418.515 61.6876Z" fill="white"/>
<path d="M381.446 157.233V93.5361C381.446 93.5361 369.831 107.078 361.428 123.88V157.233H381.446Z" fill="white"/>
<path d="M239.007 70.4647C235.794 63.9445 230.11 60.1829 220.966 60.6844C208.857 61.4368 201.69 69.9632 184.885 90.5267C177.224 100.056 166.598 113.097 155.23 125.635V156.982H135.459V142.939C134.718 143.691 118.654 159.49 96.4124 158.988C72.9349 158.236 55.1415 146.7 54.6472 124.131C53.9058 99.8054 72.1935 84.5081 103.579 84.5081H135.212C135.212 66.2015 123.327 62.1863 107.511 62.1863H31.2826L1 31.5704L14.0008 18.4265L38.9318 43.6318H106.05C138.919 43.6318 153.5 55.4182 154.982 83.5051V87.2666L135.459 109.836V103.316H103.579C85.7857 103.316 75.9005 110.589 75.6534 121.372C75.1591 132.657 83.0673 138.425 94.4353 139.428C107.78 140.933 123.102 131.403 135.459 118.614C148.505 104.986 160.956 89.0904 166.451 82.0751C168.033 80.0544 169.04 78.7699 169.316 78.4896V43.6318H189.086V57.6752C196.747 49.6504 204.903 42.6287 218.989 41.8764C233.57 40.8733 244.444 45.1364 251.858 53.412L239.007 70.4647Z" fill="white"/>
<path d="M189.086 157.233L189.828 93.7868L169.316 119.366V157.233H189.086Z" fill="white"/>
<path fill-rule="evenodd" clip-rule="evenodd" d="M655.231 62.1863H925L881.717 18.4265L868.716 31.5704L880.646 43.6318L655.231 43.6316C654.502 43.6495 653.76 43.6846 653.006 43.738C633.977 44.741 623.103 57.6752 623.103 57.6752V43.6318H603.333V77.2356C603.333 77.2356 588.752 97.7992 579.608 111.09C568.24 127.391 555.884 137.923 538.09 137.923C527.711 137.923 518.567 133.66 511.894 127.14L593.2 79.9942C593.2 79.9942 583.81 63.443 572.936 54.1644C562.803 45.3872 551.188 41.8764 538.09 41.8764C506.21 41.8764 480.262 67.957 480.262 100.307C480.262 132.657 506.21 158.988 538.09 158.988C564.78 158.988 581.585 143.691 594.189 124.883C594.752 124.026 595.375 123.073 596.054 122.033C601.342 113.944 610.007 100.686 619.643 88.019C619.732 87.9116 619.904 87.684 620.154 87.3539L620.159 87.3476L620.161 87.3451C623.434 83.0288 640.095 62.8845 655.231 62.1863ZM538.09 62.6907C548.717 62.6907 558.355 67.2046 565.028 74.7279L502.256 110.84C501.515 107.329 501.021 103.818 501.021 100.307C501.021 79.4926 517.578 62.6907 538.09 62.6907Z" fill="white"/>
<path d="M623.103 157.233H603.333V123.88C611.241 109.335 623.103 94.0376 623.103 94.0376V157.233Z" fill="white"/>
</svg>
